<svg width="52" height="51" viewBox="0 0 52 51" fill="none" xmlns="http://www.w3.org/2000/svg">
<path d="M31.841 49.7763C31.7441 49.7763 31.6956 49.8219 31.6956 49.9131V50.0499C31.6956 50.1411 31.7441 50.1867 31.841 50.1867H51.0239C51.1693 50.1867 51.242 50.1411 51.242 50.0499V49.9131C51.242 49.8219 51.1693 49.7763 51.0239 49.7763H48.7715C47.2698 49.7763 46.2041 49.5256 45.5742 49.024C44.9929 48.5225 44.5085 47.7019 44.121 46.5621C41.6989 39.5408 39.4464 32.5195 37.3634 25.4984C35.2804 18.4771 33.2216 11.4102 31.1871 4.29773C30.8964 3.34026 30.8964 2.54249 31.1871 1.90418C31.4777 1.26587 32.1559 0.946718 33.2216 0.946718H37.5814C37.7267 0.946718 37.7993 0.878328 37.7993 0.741548V0.673158C37.7993 0.581971 37.7267 0.536377 37.5814 0.536377H8.51627C8.32241 0.536377 8.2256 0.581971 8.2256 0.673158V0.741548C8.2256 0.878328 8.32241 0.946718 8.51627 0.946718H13.8933C14.8621 0.946718 15.3465 1.35706 15.3465 2.17775C15.3465 2.54249 15.2981 2.90724 15.2012 3.27187C15.1043 3.59103 14.9348 4.06976 14.6926 4.70807C14.2566 5.75672 13.7238 7.01054 13.094 8.46954C12.5127 9.88282 11.9071 11.3418 11.2774 12.8464C10.6476 14.351 10.0421 15.8099 9.46078 17.2233C8.87957 18.6367 8.37087 19.8677 7.93493 20.9162C7.01458 23.1503 6.06994 25.3388 5.10113 27.4816C4.18065 29.6245 3.35711 31.6761 2.6305 33.6366C1.90389 35.5515 1.29838 37.3751 0.813978 39.1077C0.378037 40.7946 0.160004 42.3448 0.160004 43.7581C0.160004 46.1746 0.789807 47.9298 2.04929 49.024C3.30877 50.1183 4.88309 50.6654 6.77238 50.6654C8.3224 50.6654 9.72728 50.2779 10.9868 49.5028C12.2462 48.6821 13.4331 47.6792 14.5473 46.4937C15.7099 45.2627 16.7998 43.9633 17.817 42.5955C18.8828 41.1822 19.9727 39.8828 21.0869 38.6973C22.201 37.4663 23.3637 36.4634 24.5747 35.6883C25.8342 34.8676 27.1906 34.4573 28.6438 34.4573C30.969 34.4573 32.7614 35.0956 34.0209 36.3722C35.2804 37.6487 36.2008 39.1077 36.782 40.7491C37.1696 41.7521 37.4603 42.7095 37.654 43.6213C37.8963 44.5332 38.1385 45.3539 38.3807 46.0834C38.4776 46.4937 38.5018 46.9269 38.4533 47.3828C38.4533 47.8387 38.308 48.249 38.0174 48.6137C37.7752 48.9329 37.3392 49.2064 36.7094 49.4344C36.1281 49.6624 35.3288 49.7763 34.3115 49.7763H31.841ZM12.5127 22.0105C15.2739 22.0105 17.2842 22.6032 18.5437 23.7886C19.8031 24.9284 20.4329 26.7977 20.4329 29.3965V36.509C19.3672 37.2383 18.3258 38.0134 17.3085 38.8341C16.2912 39.6548 15.2981 40.4071 14.3293 41.091C13.3605 41.7749 12.4158 42.3447 11.4955 42.8006C10.575 43.211 9.65465 43.4162 8.73418 43.4162C7.37789 43.4162 6.14258 43.0286 5.02837 42.2536C3.91428 41.433 3.35711 40.0879 3.35711 38.2186C3.35711 37.0788 3.55097 35.7795 3.93845 34.3205C4.37439 32.8159 4.85892 31.3113 5.39167 29.8068C5.97301 28.3023 6.55435 26.8661 7.13568 25.4984C7.7169 24.1306 8.2013 22.9679 8.5889 22.0105H12.5127ZM15.3465 5.46036C15.9279 4.09255 16.6545 3.2036 17.5264 2.79326C18.4469 2.38292 19.4157 2.15495 20.4329 2.10935V14.009C20.4329 16.6989 19.8274 18.6367 18.6164 19.8221C17.4053 21.0074 15.3707 21.6001 12.5127 21.6001H8.73418C9.46079 19.8221 10.1875 18.0439 10.9141 16.2658C11.6407 14.4422 12.3189 12.778 12.9487 11.2734C13.5784 9.76883 14.0871 8.49233 14.4745 7.44368C14.9106 6.39503 15.2012 5.73392 15.3465 5.46036ZM33.5123 29.7384C33.6091 30.0576 33.706 30.4451 33.8028 30.9011C33.8998 31.3569 33.9482 31.79 33.9482 32.2004C33.9967 32.6107 33.9724 32.9983 33.8756 33.363C33.8271 33.6822 33.6817 33.9101 33.4395 34.0469C33.3427 34.0925 33.1732 34.1153 32.931 34.1153C32.4466 34.1153 31.8652 34.0241 31.1871 33.8417C30.5573 33.6138 29.6854 33.4998 28.5712 33.4998C27.2148 33.4998 25.9068 33.7734 24.6473 34.3205C23.3879 34.822 22.1284 35.4603 20.8689 36.2354V29.3965C20.8689 26.7521 21.4502 24.8601 22.6128 23.7202C23.8239 22.5804 25.8585 22.0105 28.7164 22.0105H31.2597C31.6472 23.2871 32.0105 24.5865 32.3496 25.9086C32.7372 27.1852 33.1247 28.4618 33.5123 29.7384ZM28.7164 21.6001C25.9553 21.6001 23.945 20.9846 22.6855 19.7537C21.4744 18.5227 20.8689 16.6077 20.8689 14.009V2.10935C22.5644 2.15495 23.8239 2.4969 24.6473 3.13521C25.4709 3.7734 26.0522 4.63968 26.3913 5.73392C26.9241 7.46648 27.6024 9.72324 28.4259 12.5044C29.2493 15.2855 30.1455 18.3175 31.1143 21.6001H28.7164Z" fill="#212529"/>
</svg>
